<svg xmlns="http://www.w3.org/2000/svg" viewBox="0 0 100 100">
  <rect width="100" height="100" rx="18" fill="#2563eb"/>
  <rect x="10" y="27" width="80" height="46" rx="6" fill="white"/>
  <rect x="15" y="32" width="8" height="8" rx="1.5" fill="#2563eb"/>
  <rect x="25" y="32" width="8" height="8" rx="1.5" fill="#2563eb"/>
  <rect x="35" y="32" width="8" height="8" rx="1.5" fill="#2563eb"/>
  <rect x="45" y="32" width="8" height="8" rx="1.5" fill="#2563eb"/>
  <rect x="55" y="32" width="8" height="8" rx="1.5" fill="#2563eb"/>
  <rect x="65" y="32" width="8" height="8" rx="1.5" fill="#2563eb"/>
  <rect x="75" y="32" width="8" height="8" rx="1.5" fill="#2563eb"/>
  <rect x="18" y="43" width="9" height="8" rx="1.5" fill="#2563eb"/>
  <rect x="30" y="43" width="9" height="8" rx="1.5" fill="#2563eb"/>
  <rect x="42" y="43" width="9" height="8" rx="1.5" fill="#2563eb"/>
  <rect x="54" y="43" width="9" height="8" rx="1.5" fill="#2563eb"/>
  <rect x="66" y="43" width="9" height="8" rx="1.5" fill="#2563eb"/>
  <rect x="25" y="54" width="50" height="8" rx="2" fill="#2563eb"/>
</svg>
